<mxfile host="Electron" modified="2024-03-13T18:00:26.592Z" agent="Mozilla/5.0 (X11; Linux x86_64) AppleWebKit/537.36 (KHTML, like Gecko) draw.io/24.0.4 Chrome/120.0.6099.109 Electron/28.1.0 Safari/537.36" etag="LrS_s60ZBNMTrAt6xcOq" version="24.0.4" type="device">
  <diagram name="Página-1" id="41-lPRnmmOIt93AeK6Ck">
    <mxGraphModel dx="925" dy="570" grid="1" gridSize="16" guides="1" tooltips="1" connect="1" arrows="1" fold="1" page="1" pageScale="1" pageWidth="827" pageHeight="1169" math="0" shadow="0">
      <root>
        <mxCell id="0" />
        <mxCell id="1" parent="0" />
        <mxCell id="sKdUQqrCnT9vSEJnMKKA-4" value="&lt;font style=&quot;font-size: 18px;&quot;&gt;Imagem&lt;/font&gt;" style="rounded=0;whiteSpace=wrap;html=1;sketch=1;hachureGap=4;jiggle=2;curveFitting=1;labelBackgroundColor=none;" parent="1" vertex="1">
          <mxGeometry x="388.59" y="538" width="120" height="48" as="geometry" />
        </mxCell>
        <mxCell id="sKdUQqrCnT9vSEJnMKKA-20" style="edgeStyle=orthogonalEdgeStyle;rounded=0;sketch=1;hachureGap=4;jiggle=2;curveFitting=1;orthogonalLoop=1;jettySize=auto;html=1;endArrow=none;endFill=0;" parent="1" source="sKdUQqrCnT9vSEJnMKKA-5" target="sKdUQqrCnT9vSEJnMKKA-18" edge="1">
          <mxGeometry relative="1" as="geometry">
            <Array as="points">
              <mxPoint x="572" y="304" />
              <mxPoint x="572" y="304" />
            </Array>
          </mxGeometry>
        </mxCell>
        <mxCell id="sKdUQqrCnT9vSEJnMKKA-25" value="&lt;font style=&quot;font-size: 16px;&quot;&gt;1&lt;/font&gt;" style="edgeLabel;html=1;align=center;verticalAlign=middle;resizable=0;points=[];sketch=1;hachureGap=4;jiggle=2;curveFitting=1;" parent="sKdUQqrCnT9vSEJnMKKA-20" vertex="1" connectable="0">
          <mxGeometry x="-0.5255" relative="1" as="geometry">
            <mxPoint x="12" y="-3" as="offset" />
          </mxGeometry>
        </mxCell>
        <mxCell id="sKdUQqrCnT9vSEJnMKKA-5" value="&lt;font style=&quot;font-size: 18px;&quot;&gt;Termo&lt;br&gt;&lt;/font&gt;" style="rounded=0;whiteSpace=wrap;html=1;sketch=1;hachureGap=4;jiggle=2;curveFitting=1;labelBackgroundColor=none;" parent="1" vertex="1">
          <mxGeometry x="480" y="312" width="120" height="48" as="geometry" />
        </mxCell>
        <mxCell id="sKdUQqrCnT9vSEJnMKKA-6" value="&lt;font style=&quot;font-size: 18px;&quot;&gt;Definição&lt;br&gt;&lt;/font&gt;" style="rounded=0;whiteSpace=wrap;html=1;sketch=1;hachureGap=4;jiggle=2;curveFitting=1;labelBackgroundColor=none;" parent="1" vertex="1">
          <mxGeometry x="480" y="80" width="120" height="48" as="geometry" />
        </mxCell>
        <mxCell id="sKdUQqrCnT9vSEJnMKKA-7" value="&lt;font style=&quot;font-size: 18px;&quot;&gt;Sílaba&lt;br&gt;&lt;/font&gt;" style="rounded=0;whiteSpace=wrap;html=1;sketch=1;hachureGap=4;jiggle=2;curveFitting=1;labelBackgroundColor=none;" parent="1" vertex="1">
          <mxGeometry x="192" y="80" width="120" height="48" as="geometry" />
        </mxCell>
        <mxCell id="sKdUQqrCnT9vSEJnMKKA-8" value="&lt;font style=&quot;font-size: 18px;&quot;&gt;Questão&lt;br&gt;&lt;/font&gt;" style="rounded=0;whiteSpace=wrap;html=1;sketch=1;hachureGap=4;jiggle=2;curveFitting=1;labelBackgroundColor=none;" parent="1" vertex="1">
          <mxGeometry x="75" y="424.99999999999994" width="120" height="48" as="geometry" />
        </mxCell>
        <mxCell id="sKdUQqrCnT9vSEJnMKKA-9" value="&lt;font style=&quot;font-size: 18px;&quot;&gt;Usuário&lt;br&gt;&lt;/font&gt;" style="rounded=0;whiteSpace=wrap;html=1;sketch=1;hachureGap=4;jiggle=2;curveFitting=1;labelBackgroundColor=none;" parent="1" vertex="1">
          <mxGeometry x="241" y="752" width="120" height="48" as="geometry" />
        </mxCell>
        <mxCell id="sKdUQqrCnT9vSEJnMKKA-11" style="edgeStyle=orthogonalEdgeStyle;rounded=0;sketch=1;hachureGap=4;jiggle=2;curveFitting=1;orthogonalLoop=1;jettySize=auto;html=1;endArrow=none;endFill=0;" parent="1" source="sKdUQqrCnT9vSEJnMKKA-10" target="sKdUQqrCnT9vSEJnMKKA-7" edge="1">
          <mxGeometry relative="1" as="geometry" />
        </mxCell>
        <mxCell id="sKdUQqrCnT9vSEJnMKKA-10" value="&lt;font style=&quot;font-size: 14px;&quot;&gt;Conteúdo&lt;/font&gt;" style="ellipse;whiteSpace=wrap;html=1;sketch=1;hachureGap=4;jiggle=2;curveFitting=1;" parent="1" vertex="1">
          <mxGeometry x="48" y="32" width="96" height="48" as="geometry" />
        </mxCell>
        <mxCell id="sKdUQqrCnT9vSEJnMKKA-13" style="edgeStyle=orthogonalEdgeStyle;rounded=0;sketch=1;hachureGap=4;jiggle=2;curveFitting=1;orthogonalLoop=1;jettySize=auto;html=1;endArrow=none;endFill=0;" parent="1" source="sKdUQqrCnT9vSEJnMKKA-12" target="sKdUQqrCnT9vSEJnMKKA-7" edge="1">
          <mxGeometry relative="1" as="geometry" />
        </mxCell>
        <mxCell id="sKdUQqrCnT9vSEJnMKKA-12" value="&lt;font style=&quot;font-size: 14px;&quot;&gt;Ordem&lt;/font&gt;" style="ellipse;whiteSpace=wrap;html=1;sketch=1;hachureGap=4;jiggle=2;curveFitting=1;" parent="1" vertex="1">
          <mxGeometry x="64" y="112" width="80" height="48" as="geometry" />
        </mxCell>
        <mxCell id="sKdUQqrCnT9vSEJnMKKA-15" style="edgeStyle=orthogonalEdgeStyle;rounded=0;sketch=1;hachureGap=4;jiggle=2;curveFitting=1;orthogonalLoop=1;jettySize=auto;html=1;endArrow=none;endFill=0;exitX=0;exitY=0.5;exitDx=0;exitDy=0;" parent="1" source="sKdUQqrCnT9vSEJnMKKA-14" target="sKdUQqrCnT9vSEJnMKKA-7" edge="1">
          <mxGeometry relative="1" as="geometry" />
        </mxCell>
        <mxCell id="sKdUQqrCnT9vSEJnMKKA-22" value="&lt;font style=&quot;font-size: 16px;&quot;&gt;1,N&lt;/font&gt;" style="edgeLabel;html=1;align=center;verticalAlign=middle;resizable=0;points=[];sketch=1;hachureGap=4;jiggle=2;curveFitting=1;" parent="sKdUQqrCnT9vSEJnMKKA-15" vertex="1" connectable="0">
          <mxGeometry x="0.7873" y="-2" relative="1" as="geometry">
            <mxPoint x="16" y="3" as="offset" />
          </mxGeometry>
        </mxCell>
        <mxCell id="sKdUQqrCnT9vSEJnMKKA-16" style="edgeStyle=orthogonalEdgeStyle;rounded=0;sketch=1;hachureGap=4;jiggle=2;curveFitting=1;orthogonalLoop=1;jettySize=auto;html=1;entryX=0.092;entryY=0.002;entryDx=0;entryDy=0;endArrow=none;endFill=0;entryPerimeter=0;" parent="1" source="sKdUQqrCnT9vSEJnMKKA-14" target="sKdUQqrCnT9vSEJnMKKA-5" edge="1">
          <mxGeometry relative="1" as="geometry">
            <Array as="points">
              <mxPoint x="496" y="208" />
              <mxPoint x="496" y="312" />
            </Array>
          </mxGeometry>
        </mxCell>
        <mxCell id="sKdUQqrCnT9vSEJnMKKA-21" value="&lt;font style=&quot;font-size: 16px;&quot;&gt;1&lt;/font&gt;" style="edgeLabel;html=1;align=center;verticalAlign=middle;resizable=0;points=[];sketch=1;hachureGap=4;jiggle=2;curveFitting=1;" parent="sKdUQqrCnT9vSEJnMKKA-16" vertex="1" connectable="0">
          <mxGeometry x="0.849" y="1" relative="1" as="geometry">
            <mxPoint x="11" y="-7" as="offset" />
          </mxGeometry>
        </mxCell>
        <mxCell id="sKdUQqrCnT9vSEJnMKKA-14" value="&lt;font style=&quot;font-size: 18px;&quot;&gt;TEM&lt;/font&gt;" style="rhombus;whiteSpace=wrap;html=1;sketch=1;hachureGap=4;jiggle=2;curveFitting=1;" parent="1" vertex="1">
          <mxGeometry x="290" y="176" width="104" height="64" as="geometry" />
        </mxCell>
        <mxCell id="sKdUQqrCnT9vSEJnMKKA-19" style="edgeStyle=orthogonalEdgeStyle;rounded=0;sketch=1;hachureGap=4;jiggle=2;curveFitting=1;orthogonalLoop=1;jettySize=auto;html=1;endArrow=none;endFill=0;" parent="1" source="sKdUQqrCnT9vSEJnMKKA-18" target="sKdUQqrCnT9vSEJnMKKA-6" edge="1">
          <mxGeometry relative="1" as="geometry">
            <Array as="points">
              <mxPoint x="572" y="144" />
              <mxPoint x="572" y="144" />
            </Array>
          </mxGeometry>
        </mxCell>
        <mxCell id="sKdUQqrCnT9vSEJnMKKA-26" value="&lt;font style=&quot;font-size: 16px;&quot;&gt;1,N&lt;/font&gt;" style="edgeLabel;html=1;align=center;verticalAlign=middle;resizable=0;points=[];sketch=1;hachureGap=4;jiggle=2;curveFitting=1;" parent="sKdUQqrCnT9vSEJnMKKA-19" vertex="1" connectable="0">
          <mxGeometry x="0.5375" y="-2" relative="1" as="geometry">
            <mxPoint x="19" as="offset" />
          </mxGeometry>
        </mxCell>
        <mxCell id="sKdUQqrCnT9vSEJnMKKA-18" value="&lt;font style=&quot;font-size: 18px;&quot;&gt;TEM&lt;/font&gt;" style="rhombus;whiteSpace=wrap;html=1;sketch=1;hachureGap=4;jiggle=2;curveFitting=1;" parent="1" vertex="1">
          <mxGeometry x="520" y="192" width="104" height="64" as="geometry" />
        </mxCell>
        <mxCell id="sKdUQqrCnT9vSEJnMKKA-28" style="edgeStyle=orthogonalEdgeStyle;rounded=0;sketch=1;hachureGap=4;jiggle=2;curveFitting=1;orthogonalLoop=1;jettySize=auto;html=1;entryX=0.5;entryY=0;entryDx=0;entryDy=0;endArrow=none;endFill=0;" parent="1" source="sKdUQqrCnT9vSEJnMKKA-27" target="sKdUQqrCnT9vSEJnMKKA-6" edge="1">
          <mxGeometry relative="1" as="geometry">
            <Array as="points">
              <mxPoint x="540" y="40" />
            </Array>
          </mxGeometry>
        </mxCell>
        <mxCell id="sKdUQqrCnT9vSEJnMKKA-27" value="&lt;font style=&quot;font-size: 14px;&quot;&gt;Conteúdo&lt;/font&gt;" style="ellipse;whiteSpace=wrap;html=1;sketch=1;hachureGap=4;jiggle=2;curveFitting=1;" parent="1" vertex="1">
          <mxGeometry x="492" y="16" width="96" height="38" as="geometry" />
        </mxCell>
        <mxCell id="sKdUQqrCnT9vSEJnMKKA-30" style="edgeStyle=orthogonalEdgeStyle;rounded=0;sketch=1;hachureGap=4;jiggle=2;curveFitting=1;orthogonalLoop=1;jettySize=auto;html=1;endArrow=none;endFill=0;" parent="1" source="sKdUQqrCnT9vSEJnMKKA-29" target="sKdUQqrCnT9vSEJnMKKA-6" edge="1">
          <mxGeometry relative="1" as="geometry" />
        </mxCell>
        <mxCell id="sKdUQqrCnT9vSEJnMKKA-29" value="&lt;font style=&quot;font-size: 14px;&quot;&gt;Ordem&lt;/font&gt;" style="ellipse;whiteSpace=wrap;html=1;sketch=1;hachureGap=4;jiggle=2;curveFitting=1;" parent="1" vertex="1">
          <mxGeometry x="373" y="84" width="82" height="40" as="geometry" />
        </mxCell>
        <mxCell id="sKdUQqrCnT9vSEJnMKKA-35" style="edgeStyle=orthogonalEdgeStyle;rounded=0;sketch=1;hachureGap=4;jiggle=2;curveFitting=1;orthogonalLoop=1;jettySize=auto;html=1;endArrow=none;endFill=0;" parent="1" source="sKdUQqrCnT9vSEJnMKKA-34" target="sKdUQqrCnT9vSEJnMKKA-5" edge="1">
          <mxGeometry relative="1" as="geometry">
            <Array as="points">
              <mxPoint x="576" y="462" />
              <mxPoint x="624" y="462" />
              <mxPoint x="624" y="336" />
            </Array>
          </mxGeometry>
        </mxCell>
        <mxCell id="sKdUQqrCnT9vSEJnMKKA-34" value="&lt;font style=&quot;font-size: 14px;&quot;&gt;Conteúdo&lt;/font&gt;" style="ellipse;whiteSpace=wrap;html=1;sketch=1;hachureGap=4;jiggle=2;curveFitting=1;" parent="1" vertex="1">
          <mxGeometry x="544" y="502" width="98" height="48" as="geometry" />
        </mxCell>
        <mxCell id="sKdUQqrCnT9vSEJnMKKA-39" style="edgeStyle=orthogonalEdgeStyle;rounded=0;sketch=1;hachureGap=4;jiggle=2;curveFitting=1;orthogonalLoop=1;jettySize=auto;html=1;endArrow=none;endFill=0;" parent="1" source="sKdUQqrCnT9vSEJnMKKA-36" target="sKdUQqrCnT9vSEJnMKKA-5" edge="1">
          <mxGeometry relative="1" as="geometry">
            <Array as="points">
              <mxPoint x="763" y="464" />
              <mxPoint x="624" y="464" />
              <mxPoint x="624" y="336" />
            </Array>
          </mxGeometry>
        </mxCell>
        <mxCell id="sKdUQqrCnT9vSEJnMKKA-36" value="&lt;font style=&quot;font-size: 14px;&quot;&gt;Gênero&lt;/font&gt;" style="ellipse;whiteSpace=wrap;html=1;sketch=1;hachureGap=4;jiggle=2;curveFitting=1;" parent="1" vertex="1">
          <mxGeometry x="714" y="446" width="98" height="32" as="geometry" />
        </mxCell>
        <mxCell id="sKdUQqrCnT9vSEJnMKKA-38" style="edgeStyle=orthogonalEdgeStyle;rounded=0;sketch=1;hachureGap=4;jiggle=2;curveFitting=1;orthogonalLoop=1;jettySize=auto;html=1;endArrow=none;endFill=0;" parent="1" source="sKdUQqrCnT9vSEJnMKKA-37" target="sKdUQqrCnT9vSEJnMKKA-5" edge="1">
          <mxGeometry relative="1" as="geometry">
            <Array as="points">
              <mxPoint x="691" y="464" />
              <mxPoint x="624" y="464" />
              <mxPoint x="624" y="336" />
            </Array>
          </mxGeometry>
        </mxCell>
        <mxCell id="sKdUQqrCnT9vSEJnMKKA-37" value="&lt;font style=&quot;font-size: 14px;&quot;&gt;Classe&lt;/font&gt;" style="ellipse;whiteSpace=wrap;html=1;sketch=1;hachureGap=4;jiggle=2;curveFitting=1;" parent="1" vertex="1">
          <mxGeometry x="659.42" y="510" width="98" height="32" as="geometry" />
        </mxCell>
        <mxCell id="sKdUQqrCnT9vSEJnMKKA-47" style="edgeStyle=orthogonalEdgeStyle;rounded=0;sketch=1;hachureGap=4;jiggle=2;curveFitting=1;orthogonalLoop=1;jettySize=auto;html=1;endArrow=none;endFill=0;" parent="1" source="sKdUQqrCnT9vSEJnMKKA-46" target="sKdUQqrCnT9vSEJnMKKA-5" edge="1">
          <mxGeometry relative="1" as="geometry">
            <Array as="points">
              <mxPoint x="384" y="304" />
              <mxPoint x="384" y="336" />
            </Array>
            <mxPoint x="142" y="360" as="targetPoint" />
          </mxGeometry>
        </mxCell>
        <mxCell id="sKdUQqrCnT9vSEJnMKKA-49" value="&lt;font style=&quot;font-size: 16px;&quot;&gt;1&lt;/font&gt;" style="edgeLabel;html=1;align=center;verticalAlign=middle;resizable=0;points=[];sketch=1;hachureGap=4;jiggle=2;curveFitting=1;" parent="sKdUQqrCnT9vSEJnMKKA-47" vertex="1" connectable="0">
          <mxGeometry x="0.7933" y="1" relative="1" as="geometry">
            <mxPoint x="-6" y="-18" as="offset" />
          </mxGeometry>
        </mxCell>
        <mxCell id="sKdUQqrCnT9vSEJnMKKA-73" style="edgeStyle=orthogonalEdgeStyle;rounded=0;sketch=1;hachureGap=4;jiggle=2;curveFitting=1;orthogonalLoop=1;jettySize=auto;html=1;endArrow=none;endFill=0;" parent="1" source="sKdUQqrCnT9vSEJnMKKA-46" target="sKdUQqrCnT9vSEJnMKKA-8" edge="1">
          <mxGeometry relative="1" as="geometry">
            <Array as="points">
              <mxPoint x="168" y="304" />
            </Array>
          </mxGeometry>
        </mxCell>
        <mxCell id="sKdUQqrCnT9vSEJnMKKA-74" value="&lt;font style=&quot;font-size: 16px;&quot;&gt;0,&lt;/font&gt;&lt;span style=&quot;font-size: 16px;&quot;&gt;N&lt;/span&gt;" style="edgeLabel;html=1;align=center;verticalAlign=middle;resizable=0;points=[];sketch=1;hachureGap=4;jiggle=2;curveFitting=1;" parent="sKdUQqrCnT9vSEJnMKKA-73" vertex="1" connectable="0">
          <mxGeometry x="-0.8312" y="1" relative="1" as="geometry">
            <mxPoint x="-61" y="103" as="offset" />
          </mxGeometry>
        </mxCell>
        <mxCell id="sKdUQqrCnT9vSEJnMKKA-46" value="&lt;span style=&quot;font-size: 18px;&quot;&gt;TEM&lt;/span&gt;" style="rhombus;whiteSpace=wrap;html=1;sketch=1;hachureGap=4;jiggle=2;curveFitting=1;" parent="1" vertex="1">
          <mxGeometry x="265" y="276" width="100" height="56" as="geometry" />
        </mxCell>
        <mxCell id="sKdUQqrCnT9vSEJnMKKA-53" style="edgeStyle=orthogonalEdgeStyle;rounded=0;sketch=1;hachureGap=4;jiggle=2;curveFitting=1;orthogonalLoop=1;jettySize=auto;html=1;endArrow=none;endFill=0;" parent="1" source="sKdUQqrCnT9vSEJnMKKA-52" target="sKdUQqrCnT9vSEJnMKKA-8" edge="1">
          <mxGeometry relative="1" as="geometry">
            <Array as="points">
              <mxPoint x="144" y="320" />
            </Array>
          </mxGeometry>
        </mxCell>
        <mxCell id="sKdUQqrCnT9vSEJnMKKA-52" value="&lt;span style=&quot;font-size: 14px;&quot;&gt;Enunciado&lt;/span&gt;" style="ellipse;whiteSpace=wrap;html=1;sketch=1;hachureGap=4;jiggle=2;curveFitting=1;" parent="1" vertex="1">
          <mxGeometry x="32" y="304" width="96" height="32" as="geometry" />
        </mxCell>
        <mxCell id="sKdUQqrCnT9vSEJnMKKA-57" style="edgeStyle=orthogonalEdgeStyle;rounded=0;sketch=1;hachureGap=4;jiggle=2;curveFitting=1;orthogonalLoop=1;jettySize=auto;html=1;endArrow=none;endFill=0;" parent="1" source="sKdUQqrCnT9vSEJnMKKA-54" target="sKdUQqrCnT9vSEJnMKKA-8" edge="1">
          <mxGeometry relative="1" as="geometry">
            <Array as="points">
              <mxPoint x="144" y="376" />
            </Array>
          </mxGeometry>
        </mxCell>
        <mxCell id="sKdUQqrCnT9vSEJnMKKA-54" value="&lt;span style=&quot;font-size: 14px;&quot;&gt;Ordem&lt;/span&gt;" style="ellipse;whiteSpace=wrap;html=1;sketch=1;hachureGap=4;jiggle=2;curveFitting=1;" parent="1" vertex="1">
          <mxGeometry x="32" y="360" width="98" height="32" as="geometry" />
        </mxCell>
        <mxCell id="sKdUQqrCnT9vSEJnMKKA-59" style="edgeStyle=orthogonalEdgeStyle;rounded=0;sketch=1;hachureGap=4;jiggle=2;curveFitting=1;orthogonalLoop=1;jettySize=auto;html=1;endArrow=none;endFill=0;" parent="1" source="sKdUQqrCnT9vSEJnMKKA-55" target="sKdUQqrCnT9vSEJnMKKA-8" edge="1">
          <mxGeometry relative="1" as="geometry">
            <Array as="points">
              <mxPoint x="311" y="449" />
            </Array>
          </mxGeometry>
        </mxCell>
        <mxCell id="sKdUQqrCnT9vSEJnMKKA-55" value="&lt;span style=&quot;font-size: 14px;&quot;&gt;Justificativa&lt;/span&gt;" style="ellipse;whiteSpace=wrap;html=1;sketch=1;hachureGap=4;jiggle=2;curveFitting=1;" parent="1" vertex="1">
          <mxGeometry x="259.5" y="378" width="103" height="47" as="geometry" />
        </mxCell>
        <mxCell id="sKdUQqrCnT9vSEJnMKKA-60" style="edgeStyle=orthogonalEdgeStyle;rounded=0;sketch=1;hachureGap=4;jiggle=2;curveFitting=1;orthogonalLoop=1;jettySize=auto;html=1;endArrow=none;endFill=0;" parent="1" source="sKdUQqrCnT9vSEJnMKKA-56" target="sKdUQqrCnT9vSEJnMKKA-8" edge="1">
          <mxGeometry relative="1" as="geometry">
            <Array as="points">
              <mxPoint x="145" y="268" />
            </Array>
          </mxGeometry>
        </mxCell>
        <mxCell id="sKdUQqrCnT9vSEJnMKKA-56" value="&lt;span style=&quot;font-size: 14px;&quot;&gt;Resposta&lt;/span&gt;" style="ellipse;whiteSpace=wrap;html=1;sketch=1;hachureGap=4;jiggle=2;curveFitting=1;" parent="1" vertex="1">
          <mxGeometry x="30" y="246.99999999999994" width="98" height="41" as="geometry" />
        </mxCell>
        <mxCell id="sKdUQqrCnT9vSEJnMKKA-63" style="edgeStyle=orthogonalEdgeStyle;rounded=0;sketch=1;hachureGap=4;jiggle=2;curveFitting=1;orthogonalLoop=1;jettySize=auto;html=1;endArrow=none;endFill=0;" parent="1" source="sKdUQqrCnT9vSEJnMKKA-61" target="sKdUQqrCnT9vSEJnMKKA-4" edge="1">
          <mxGeometry relative="1" as="geometry">
            <Array as="points">
              <mxPoint x="480" y="512" />
              <mxPoint x="480" y="512" />
            </Array>
          </mxGeometry>
        </mxCell>
        <mxCell id="sKdUQqrCnT9vSEJnMKKA-64" value="&lt;font style=&quot;font-size: 16px;&quot;&gt;1&lt;/font&gt;" style="edgeLabel;html=1;align=center;verticalAlign=middle;resizable=0;points=[];sketch=1;hachureGap=4;jiggle=2;curveFitting=1;" parent="sKdUQqrCnT9vSEJnMKKA-63" vertex="1" connectable="0">
          <mxGeometry x="0.5894" y="1" relative="1" as="geometry">
            <mxPoint x="-12" y="-9" as="offset" />
          </mxGeometry>
        </mxCell>
        <mxCell id="sKdUQqrCnT9vSEJnMKKA-71" style="edgeStyle=orthogonalEdgeStyle;rounded=0;sketch=1;hachureGap=4;jiggle=2;curveFitting=1;orthogonalLoop=1;jettySize=auto;html=1;endArrow=none;endFill=0;" parent="1" source="sKdUQqrCnT9vSEJnMKKA-61" target="sKdUQqrCnT9vSEJnMKKA-5" edge="1">
          <mxGeometry relative="1" as="geometry">
            <Array as="points">
              <mxPoint x="480" y="416" />
              <mxPoint x="560" y="416" />
            </Array>
            <mxPoint x="192" y="360" as="targetPoint" />
          </mxGeometry>
        </mxCell>
        <mxCell id="sKdUQqrCnT9vSEJnMKKA-72" value="&lt;font style=&quot;font-size: 16px;&quot;&gt;1&lt;/font&gt;" style="edgeLabel;html=1;align=center;verticalAlign=middle;resizable=0;points=[];sketch=1;hachureGap=4;jiggle=2;curveFitting=1;" parent="sKdUQqrCnT9vSEJnMKKA-71" vertex="1" connectable="0">
          <mxGeometry x="0.8014" y="1" relative="1" as="geometry">
            <mxPoint x="13" y="-1" as="offset" />
          </mxGeometry>
        </mxCell>
        <mxCell id="sKdUQqrCnT9vSEJnMKKA-61" value="&lt;span style=&quot;font-size: 18px;&quot;&gt;TEM&lt;/span&gt;" style="rhombus;whiteSpace=wrap;html=1;sketch=1;hachureGap=4;jiggle=2;curveFitting=1;" parent="1" vertex="1">
          <mxGeometry x="430" y="446" width="100" height="56" as="geometry" />
        </mxCell>
        <mxCell id="sKdUQqrCnT9vSEJnMKKA-69" style="edgeStyle=orthogonalEdgeStyle;rounded=0;sketch=1;hachureGap=4;jiggle=2;curveFitting=1;orthogonalLoop=1;jettySize=auto;html=1;endArrow=none;endFill=0;" parent="1" source="sKdUQqrCnT9vSEJnMKKA-66" target="sKdUQqrCnT9vSEJnMKKA-4" edge="1">
          <mxGeometry relative="1" as="geometry">
            <Array as="points">
              <mxPoint x="240" y="562" />
            </Array>
          </mxGeometry>
        </mxCell>
        <mxCell id="sKdUQqrCnT9vSEJnMKKA-66" value="&lt;span style=&quot;font-size: 14px;&quot;&gt;Diretório&lt;/span&gt;" style="ellipse;whiteSpace=wrap;html=1;sketch=1;hachureGap=4;jiggle=2;curveFitting=1;" parent="1" vertex="1">
          <mxGeometry x="179.17" y="495.5" width="94.83" height="36" as="geometry" />
        </mxCell>
        <mxCell id="sKdUQqrCnT9vSEJnMKKA-68" style="edgeStyle=orthogonalEdgeStyle;rounded=0;sketch=1;hachureGap=4;jiggle=2;curveFitting=1;orthogonalLoop=1;jettySize=auto;html=1;endArrow=none;endFill=0;" parent="1" source="sKdUQqrCnT9vSEJnMKKA-67" target="sKdUQqrCnT9vSEJnMKKA-4" edge="1">
          <mxGeometry relative="1" as="geometry">
            <Array as="points">
              <mxPoint x="333" y="561" />
            </Array>
          </mxGeometry>
        </mxCell>
        <mxCell id="sKdUQqrCnT9vSEJnMKKA-67" value="&lt;span style=&quot;font-size: 14px;&quot;&gt;Legenda&lt;/span&gt;" style="ellipse;whiteSpace=wrap;html=1;sketch=1;hachureGap=4;jiggle=2;curveFitting=1;" parent="1" vertex="1">
          <mxGeometry x="292" y="493" width="98" height="41" as="geometry" />
        </mxCell>
        <mxCell id="sKdUQqrCnT9vSEJnMKKA-91" style="edgeStyle=orthogonalEdgeStyle;rounded=0;sketch=1;hachureGap=4;jiggle=2;curveFitting=1;orthogonalLoop=1;jettySize=auto;html=1;endArrow=none;endFill=0;entryX=0.25;entryY=1;entryDx=0;entryDy=0;" parent="1" source="sKdUQqrCnT9vSEJnMKKA-78" target="sKdUQqrCnT9vSEJnMKKA-9" edge="1">
          <mxGeometry relative="1" as="geometry">
            <Array as="points">
              <mxPoint x="180" y="832" />
              <mxPoint x="271" y="832" />
            </Array>
          </mxGeometry>
        </mxCell>
        <mxCell id="sKdUQqrCnT9vSEJnMKKA-78" value="&lt;span style=&quot;font-size: 14px;&quot;&gt;Primeiro nome&lt;/span&gt;" style="ellipse;whiteSpace=wrap;html=1;sketch=1;hachureGap=4;jiggle=2;curveFitting=1;" parent="1" vertex="1">
          <mxGeometry x="108" y="864" width="128" height="48" as="geometry" />
        </mxCell>
        <mxCell id="sKdUQqrCnT9vSEJnMKKA-88" style="edgeStyle=orthogonalEdgeStyle;rounded=0;sketch=1;hachureGap=4;jiggle=2;curveFitting=1;orthogonalLoop=1;jettySize=auto;html=1;endArrow=none;endFill=0;" parent="1" source="sKdUQqrCnT9vSEJnMKKA-79" target="sKdUQqrCnT9vSEJnMKKA-9" edge="1">
          <mxGeometry relative="1" as="geometry" />
        </mxCell>
        <mxCell id="sKdUQqrCnT9vSEJnMKKA-79" value="&lt;span style=&quot;font-size: 14px;&quot;&gt;Último nome&lt;/span&gt;" style="ellipse;whiteSpace=wrap;html=1;sketch=1;hachureGap=4;jiggle=2;curveFitting=1;" parent="1" vertex="1">
          <mxGeometry x="247.5" y="640" width="107" height="48" as="geometry" />
        </mxCell>
        <mxCell id="sKdUQqrCnT9vSEJnMKKA-87" style="edgeStyle=orthogonalEdgeStyle;rounded=0;sketch=1;hachureGap=4;jiggle=2;curveFitting=1;orthogonalLoop=1;jettySize=auto;html=1;endArrow=none;endFill=0;entryX=0.75;entryY=0;entryDx=0;entryDy=0;" parent="1" source="sKdUQqrCnT9vSEJnMKKA-80" target="sKdUQqrCnT9vSEJnMKKA-9" edge="1">
          <mxGeometry relative="1" as="geometry">
            <Array as="points">
              <mxPoint x="413" y="720" />
              <mxPoint x="331" y="720" />
            </Array>
          </mxGeometry>
        </mxCell>
        <mxCell id="sKdUQqrCnT9vSEJnMKKA-80" value="&lt;span style=&quot;font-size: 14px;&quot;&gt;Senha&lt;/span&gt;" style="ellipse;whiteSpace=wrap;html=1;sketch=1;hachureGap=4;jiggle=2;curveFitting=1;" parent="1" vertex="1">
          <mxGeometry x="369" y="656" width="88" height="48" as="geometry" />
        </mxCell>
        <mxCell id="sKdUQqrCnT9vSEJnMKKA-93" style="edgeStyle=orthogonalEdgeStyle;rounded=0;sketch=1;hachureGap=4;jiggle=2;curveFitting=1;orthogonalLoop=1;jettySize=auto;html=1;endArrow=none;endFill=0;" parent="1" source="sKdUQqrCnT9vSEJnMKKA-81" target="sKdUQqrCnT9vSEJnMKKA-9" edge="1">
          <mxGeometry relative="1" as="geometry" />
        </mxCell>
        <mxCell id="sKdUQqrCnT9vSEJnMKKA-81" value="&lt;span style=&quot;font-size: 14px;&quot;&gt;E-mail&lt;/span&gt;" style="ellipse;whiteSpace=wrap;html=1;sketch=1;hachureGap=4;jiggle=2;curveFitting=1;" parent="1" vertex="1">
          <mxGeometry x="259" y="864" width="84" height="48" as="geometry" />
        </mxCell>
        <mxCell id="sKdUQqrCnT9vSEJnMKKA-90" style="edgeStyle=orthogonalEdgeStyle;rounded=0;sketch=1;hachureGap=4;jiggle=2;curveFitting=1;orthogonalLoop=1;jettySize=auto;html=1;endArrow=none;endFill=0;" parent="1" source="sKdUQqrCnT9vSEJnMKKA-82" target="sKdUQqrCnT9vSEJnMKKA-9" edge="1">
          <mxGeometry relative="1" as="geometry" />
        </mxCell>
        <mxCell id="sKdUQqrCnT9vSEJnMKKA-82" value="&lt;span style=&quot;font-size: 14px;&quot;&gt;Telefone&lt;/span&gt;" style="ellipse;whiteSpace=wrap;html=1;sketch=1;hachureGap=4;jiggle=2;curveFitting=1;" parent="1" vertex="1">
          <mxGeometry x="96" y="752" width="84" height="48" as="geometry" />
        </mxCell>
        <mxCell id="sKdUQqrCnT9vSEJnMKKA-86" style="edgeStyle=orthogonalEdgeStyle;rounded=0;sketch=1;hachureGap=4;jiggle=2;curveFitting=1;orthogonalLoop=1;jettySize=auto;html=1;endArrow=none;endFill=0;" parent="1" source="sKdUQqrCnT9vSEJnMKKA-83" target="sKdUQqrCnT9vSEJnMKKA-9" edge="1">
          <mxGeometry relative="1" as="geometry">
            <Array as="points">
              <mxPoint x="484" y="776" />
            </Array>
          </mxGeometry>
        </mxCell>
        <mxCell id="sKdUQqrCnT9vSEJnMKKA-83" value="&lt;span style=&quot;font-size: 14px;&quot;&gt;Papel&lt;/span&gt;" style="ellipse;whiteSpace=wrap;html=1;sketch=1;hachureGap=4;jiggle=2;curveFitting=1;" parent="1" vertex="1">
          <mxGeometry x="436" y="800" width="84" height="32" as="geometry" />
        </mxCell>
        <mxCell id="sKdUQqrCnT9vSEJnMKKA-89" style="edgeStyle=orthogonalEdgeStyle;rounded=0;sketch=1;hachureGap=4;jiggle=2;curveFitting=1;orthogonalLoop=1;jettySize=auto;html=1;endArrow=none;endFill=0;entryX=0.25;entryY=0;entryDx=0;entryDy=0;" parent="1" source="sKdUQqrCnT9vSEJnMKKA-84" target="sKdUQqrCnT9vSEJnMKKA-9" edge="1">
          <mxGeometry relative="1" as="geometry">
            <Array as="points">
              <mxPoint x="150" y="720" />
              <mxPoint x="271" y="720" />
            </Array>
          </mxGeometry>
        </mxCell>
        <mxCell id="sKdUQqrCnT9vSEJnMKKA-84" value="&lt;span style=&quot;font-size: 14px;&quot;&gt;Nascimento&lt;/span&gt;" style="ellipse;whiteSpace=wrap;html=1;sketch=1;hachureGap=4;jiggle=2;curveFitting=1;" parent="1" vertex="1">
          <mxGeometry x="90" y="656" width="120" height="48" as="geometry" />
        </mxCell>
        <mxCell id="sKdUQqrCnT9vSEJnMKKA-94" style="edgeStyle=orthogonalEdgeStyle;rounded=0;sketch=1;hachureGap=4;jiggle=2;curveFitting=1;orthogonalLoop=1;jettySize=auto;html=1;endArrow=none;endFill=0;entryX=0.75;entryY=1;entryDx=0;entryDy=0;" parent="1" source="sKdUQqrCnT9vSEJnMKKA-85" target="sKdUQqrCnT9vSEJnMKKA-9" edge="1">
          <mxGeometry relative="1" as="geometry">
            <Array as="points">
              <mxPoint x="404" y="832" />
              <mxPoint x="331" y="832" />
            </Array>
          </mxGeometry>
        </mxCell>
        <mxCell id="sKdUQqrCnT9vSEJnMKKA-85" value="&lt;span style=&quot;font-size: 14px;&quot;&gt;Nome de usuário&lt;/span&gt;" style="ellipse;whiteSpace=wrap;html=1;sketch=1;hachureGap=4;jiggle=2;curveFitting=1;" parent="1" vertex="1">
          <mxGeometry x="364" y="864" width="136" height="48" as="geometry" />
        </mxCell>
        <mxCell id="C5BXCIA2f3HPiUfpXjRH-4" style="edgeStyle=orthogonalEdgeStyle;rounded=0;sketch=1;hachureGap=4;jiggle=2;curveFitting=1;orthogonalLoop=1;jettySize=auto;html=1;endArrow=none;endFill=0;" parent="1" source="C5BXCIA2f3HPiUfpXjRH-2" target="sKdUQqrCnT9vSEJnMKKA-9" edge="1">
          <mxGeometry relative="1" as="geometry">
            <Array as="points">
              <mxPoint x="484" y="776" />
            </Array>
          </mxGeometry>
        </mxCell>
        <mxCell id="C5BXCIA2f3HPiUfpXjRH-2" value="id" style="ellipse;whiteSpace=wrap;html=1;align=center;fontStyle=4;sketch=1;hachureGap=4;jiggle=2;curveFitting=1;" parent="1" vertex="1">
          <mxGeometry x="460" y="712" width="52" height="40" as="geometry" />
        </mxCell>
        <mxCell id="C5BXCIA2f3HPiUfpXjRH-6" style="edgeStyle=orthogonalEdgeStyle;rounded=0;sketch=1;hachureGap=4;jiggle=2;curveFitting=1;orthogonalLoop=1;jettySize=auto;html=1;endArrow=none;endFill=0;" parent="1" source="C5BXCIA2f3HPiUfpXjRH-5" target="sKdUQqrCnT9vSEJnMKKA-4" edge="1">
          <mxGeometry relative="1" as="geometry">
            <Array as="points">
              <mxPoint x="288" y="561" />
              <mxPoint x="288" y="561" />
            </Array>
          </mxGeometry>
        </mxCell>
        <mxCell id="C5BXCIA2f3HPiUfpXjRH-5" value="id" style="ellipse;whiteSpace=wrap;html=1;align=center;fontStyle=4;sketch=1;hachureGap=4;jiggle=2;curveFitting=1;" parent="1" vertex="1">
          <mxGeometry x="148" y="550" width="36" height="24" as="geometry" />
        </mxCell>
        <mxCell id="C5BXCIA2f3HPiUfpXjRH-8" style="edgeStyle=orthogonalEdgeStyle;rounded=0;sketch=1;hachureGap=4;jiggle=2;curveFitting=1;orthogonalLoop=1;jettySize=auto;html=1;endArrow=none;endFill=0;" parent="1" source="C5BXCIA2f3HPiUfpXjRH-7" target="sKdUQqrCnT9vSEJnMKKA-8" edge="1">
          <mxGeometry relative="1" as="geometry">
            <Array as="points">
              <mxPoint x="254" y="448" />
              <mxPoint x="254" y="449" />
            </Array>
          </mxGeometry>
        </mxCell>
        <mxCell id="C5BXCIA2f3HPiUfpXjRH-7" value="id" style="ellipse;whiteSpace=wrap;html=1;align=center;fontStyle=4;sketch=1;hachureGap=4;jiggle=2;curveFitting=1;" parent="1" vertex="1">
          <mxGeometry x="347.5" y="432.5" width="46.5" height="33" as="geometry" />
        </mxCell>
        <mxCell id="C5BXCIA2f3HPiUfpXjRH-10" style="edgeStyle=orthogonalEdgeStyle;rounded=0;sketch=1;hachureGap=4;jiggle=2;curveFitting=1;orthogonalLoop=1;jettySize=auto;html=1;endArrow=none;endFill=0;" parent="1" source="C5BXCIA2f3HPiUfpXjRH-9" target="sKdUQqrCnT9vSEJnMKKA-5" edge="1">
          <mxGeometry relative="1" as="geometry" />
        </mxCell>
        <mxCell id="C5BXCIA2f3HPiUfpXjRH-9" value="id" style="ellipse;whiteSpace=wrap;html=1;align=center;fontStyle=4;sketch=1;hachureGap=4;jiggle=2;curveFitting=1;" parent="1" vertex="1">
          <mxGeometry x="403" y="364" width="52" height="34.5" as="geometry" />
        </mxCell>
        <mxCell id="C5BXCIA2f3HPiUfpXjRH-12" style="edgeStyle=orthogonalEdgeStyle;rounded=0;sketch=1;hachureGap=4;jiggle=2;curveFitting=1;orthogonalLoop=1;jettySize=auto;html=1;endArrow=none;endFill=0;" parent="1" source="C5BXCIA2f3HPiUfpXjRH-11" target="sKdUQqrCnT9vSEJnMKKA-7" edge="1">
          <mxGeometry relative="1" as="geometry">
            <Array as="points">
              <mxPoint x="190" y="152" />
              <mxPoint x="224" y="152" />
            </Array>
          </mxGeometry>
        </mxCell>
        <mxCell id="C5BXCIA2f3HPiUfpXjRH-11" value="id" style="ellipse;whiteSpace=wrap;html=1;align=center;fontStyle=4;sketch=1;hachureGap=4;jiggle=2;curveFitting=1;" parent="1" vertex="1">
          <mxGeometry x="164" y="176" width="52" height="34.5" as="geometry" />
        </mxCell>
        <mxCell id="C5BXCIA2f3HPiUfpXjRH-14" style="edgeStyle=orthogonalEdgeStyle;rounded=0;sketch=1;hachureGap=4;jiggle=2;curveFitting=1;orthogonalLoop=1;jettySize=auto;html=1;endArrow=none;endFill=0;" parent="1" source="C5BXCIA2f3HPiUfpXjRH-13" target="sKdUQqrCnT9vSEJnMKKA-6" edge="1">
          <mxGeometry relative="1" as="geometry">
            <Array as="points">
              <mxPoint x="540" y="160" />
            </Array>
          </mxGeometry>
        </mxCell>
        <mxCell id="C5BXCIA2f3HPiUfpXjRH-13" value="id" style="ellipse;whiteSpace=wrap;html=1;align=center;fontStyle=4;sketch=1;hachureGap=4;jiggle=2;curveFitting=1;" parent="1" vertex="1">
          <mxGeometry x="428" y="141.5" width="52" height="34.5" as="geometry" />
        </mxCell>
        <mxCell id="JKlVXzxXvNEAT7sn2eB7-7" style="edgeStyle=orthogonalEdgeStyle;rounded=0;sketch=1;hachureGap=4;jiggle=2;curveFitting=1;orthogonalLoop=1;jettySize=auto;html=1;fontFamily=Architects Daughter;fontSource=https%3A%2F%2Ffonts.googleapis.com%2Fcss%3Ffamily%3DArchitects%2BDaughter;endArrow=none;endFill=0;" edge="1" parent="1" source="JKlVXzxXvNEAT7sn2eB7-1" target="JKlVXzxXvNEAT7sn2eB7-2">
          <mxGeometry relative="1" as="geometry" />
        </mxCell>
        <mxCell id="JKlVXzxXvNEAT7sn2eB7-9" value="&lt;font face=&quot;Helvetica&quot;&gt;&lt;span style=&quot;font-size: 16px;&quot;&gt;N&lt;/span&gt;&lt;/font&gt;" style="edgeLabel;html=1;align=center;verticalAlign=middle;resizable=0;points=[];sketch=1;hachureGap=4;jiggle=2;curveFitting=1;fontFamily=Architects Daughter;fontSource=https%3A%2F%2Ffonts.googleapis.com%2Fcss%3Ffamily%3DArchitects%2BDaughter;" vertex="1" connectable="0" parent="JKlVXzxXvNEAT7sn2eB7-7">
          <mxGeometry x="-0.6095" relative="1" as="geometry">
            <mxPoint x="13" y="3" as="offset" />
          </mxGeometry>
        </mxCell>
        <mxCell id="JKlVXzxXvNEAT7sn2eB7-1" value="&lt;font style=&quot;font-size: 18px;&quot;&gt;Área do conhecimento&lt;br&gt;&lt;/font&gt;" style="rounded=0;whiteSpace=wrap;html=1;sketch=1;hachureGap=4;jiggle=2;curveFitting=1;labelBackgroundColor=none;" vertex="1" parent="1">
          <mxGeometry x="654.34" y="224" width="140.58" height="64" as="geometry" />
        </mxCell>
        <mxCell id="JKlVXzxXvNEAT7sn2eB7-8" style="edgeStyle=orthogonalEdgeStyle;rounded=0;sketch=1;hachureGap=4;jiggle=2;curveFitting=1;orthogonalLoop=1;jettySize=auto;html=1;fontFamily=Architects Daughter;fontSource=https%3A%2F%2Ffonts.googleapis.com%2Fcss%3Ffamily%3DArchitects%2BDaughter;endArrow=none;endFill=0;" edge="1" parent="1" source="JKlVXzxXvNEAT7sn2eB7-2" target="sKdUQqrCnT9vSEJnMKKA-6">
          <mxGeometry relative="1" as="geometry" />
        </mxCell>
        <mxCell id="JKlVXzxXvNEAT7sn2eB7-11" value="&lt;span style=&quot;font-family: Helvetica; font-size: 16px;&quot;&gt;N&lt;/span&gt;" style="edgeLabel;html=1;align=center;verticalAlign=middle;resizable=0;points=[];sketch=1;hachureGap=4;jiggle=2;curveFitting=1;fontFamily=Architects Daughter;fontSource=https%3A%2F%2Ffonts.googleapis.com%2Fcss%3Ffamily%3DArchitects%2BDaughter;" vertex="1" connectable="0" parent="JKlVXzxXvNEAT7sn2eB7-8">
          <mxGeometry x="0.5704" relative="1" as="geometry">
            <mxPoint y="-18" as="offset" />
          </mxGeometry>
        </mxCell>
        <mxCell id="JKlVXzxXvNEAT7sn2eB7-2" value="&lt;font style=&quot;font-size: 18px;&quot;&gt;TEM&lt;/font&gt;" style="rhombus;whiteSpace=wrap;html=1;sketch=1;hachureGap=4;jiggle=2;curveFitting=1;" vertex="1" parent="1">
          <mxGeometry x="672.63" y="72" width="104" height="64" as="geometry" />
        </mxCell>
        <mxCell id="JKlVXzxXvNEAT7sn2eB7-6" style="edgeStyle=orthogonalEdgeStyle;rounded=0;sketch=1;hachureGap=4;jiggle=2;curveFitting=1;orthogonalLoop=1;jettySize=auto;html=1;fontFamily=Architects Daughter;fontSource=https%3A%2F%2Ffonts.googleapis.com%2Fcss%3Ffamily%3DArchitects%2BDaughter;endArrow=none;endFill=0;" edge="1" parent="1" source="JKlVXzxXvNEAT7sn2eB7-3" target="JKlVXzxXvNEAT7sn2eB7-1">
          <mxGeometry relative="1" as="geometry">
            <Array as="points">
              <mxPoint x="752" y="316" />
              <mxPoint x="725" y="316" />
            </Array>
          </mxGeometry>
        </mxCell>
        <mxCell id="JKlVXzxXvNEAT7sn2eB7-3" value="&lt;font style=&quot;font-size: 14px;&quot;&gt;nome&lt;/font&gt;" style="ellipse;whiteSpace=wrap;html=1;sketch=1;hachureGap=4;jiggle=2;curveFitting=1;" vertex="1" parent="1">
          <mxGeometry x="714" y="328" width="76" height="32" as="geometry" />
        </mxCell>
        <mxCell id="JKlVXzxXvNEAT7sn2eB7-5" style="edgeStyle=orthogonalEdgeStyle;rounded=0;sketch=1;hachureGap=4;jiggle=2;curveFitting=1;orthogonalLoop=1;jettySize=auto;html=1;fontFamily=Architects Daughter;fontSource=https%3A%2F%2Ffonts.googleapis.com%2Fcss%3Ffamily%3DArchitects%2BDaughter;endArrow=none;endFill=0;" edge="1" parent="1" source="JKlVXzxXvNEAT7sn2eB7-4" target="JKlVXzxXvNEAT7sn2eB7-1">
          <mxGeometry relative="1" as="geometry">
            <Array as="points">
              <mxPoint x="691" y="316" />
              <mxPoint x="725" y="316" />
            </Array>
          </mxGeometry>
        </mxCell>
        <mxCell id="JKlVXzxXvNEAT7sn2eB7-4" value="&lt;font style=&quot;font-size: 14px;&quot;&gt;disciplina&lt;/font&gt;" style="ellipse;whiteSpace=wrap;html=1;sketch=1;hachureGap=4;jiggle=2;curveFitting=1;" vertex="1" parent="1">
          <mxGeometry x="654.34" y="366.5" width="98" height="32" as="geometry" />
        </mxCell>
      </root>
    </mxGraphModel>
  </diagram>
</mxfile>
